<svg width="21" height="21" viewBox="0 0 21 21" fill="none" xmlns="http://www.w3.org/2000/svg">
<path d="M6.47112 1.21265C3.60299 1.21265 1.27112 3.54452 1.27112 6.41265V13.6126C1.27112 16.4808 3.60299 18.8126 6.47112 18.8126H13.6711C16.5392 18.8126 18.8711 16.4808 18.8711 13.6126V6.41265C18.8711 3.54452 16.5392 1.21265 13.6711 1.21265H6.47112ZM14.8711 4.41265C15.3111 4.41265 15.6711 4.77265 15.6711 5.21265C15.6711 5.65265 15.3111 6.01265 14.8711 6.01265C14.4311 6.01265 14.0711 5.65265 14.0711 5.21265C14.0711 4.77265 14.4311 4.41265 14.8711 4.41265ZM10.0711 5.61265C12.4992 5.61265 14.4711 7.58452 14.4711 10.0126C14.4711 12.4408 12.4992 14.4126 10.0711 14.4126C7.64299 14.4126 5.67112 12.4408 5.67112 10.0126C5.67112 7.58452 7.64299 5.61265 10.0711 5.61265ZM10.0711 6.41265C8.08705 6.41265 6.47112 8.02858 6.47112 10.0126C6.47112 11.9967 8.08705 13.6126 10.0711 13.6126C12.0552 13.6126 13.6711 11.9967 13.6711 10.0126C13.6711 8.02858 12.0552 6.41265 10.0711 6.41265Z" fill="white"/>
</svg>
